<svg version="1.2" width="40mm" height="40mm" viewBox="13999 18001 4000 4000" preserveAspectRatio="xMidYMid" fill-rule="evenodd" stroke-width="28.222" stroke-linejoin="round" xmlns="http://www.w3.org/2000/svg" xml:space="preserve"><defs class="ClipPathGroup"><clipPath id="a" clipPathUnits="userSpaceOnUse"><path d="M13999 18001h4000v4000h-4000z"/></clipPath></defs><g class="SlideGroup"><g class="Slide" clip-path="url(#a)"><g class="Page"><g class="Group"><g class="com.sun.star.drawing.PolyPolygonShape"><path class="BoundingBox" fill="none" d="M15425 19400h1152v1201h-1152z"/><path fill="#F2ED94" d="M15425 19400h346l454 665v-665h350v1200h-350l-451-661v661h-349v-1200z"/></g><g class="Group"><g class="com.sun.star.drawing.ClosedBezierShape"><path class="BoundingBox" fill="none" d="M13999 18001h4001v4001h-4001z"/><path fill="#F2ED94" d="M14651 20081c103 45 198 106 275 183l809 809c78 78 139 173 184 277v651c-1069-39-1881-851-1920-1920h652zm1428 1273c45-106 106-202 185-281l809-809c78-77 172-138 276-183h650c-39 1069-851 1881-1920 1920v-647zm1279-1433c-107-45-205-107-284-187l-809-809c-79-79-141-175-186-281v-643c1069 39 1881 851 1920 1920h-641zm-1439-1273c-45 104-106 199-184 277l-809 809c-80 80-177 142-284 187h-643c39-1069 851-1881 1920-1920v647z"/></g></g></g></g></g></g></svg>